Coordinates	
version=1	
nRows=379	
nColumns=2	
inDegrees=yes	
endheader	
time	flexion
0	0
0.002793667	0.00037608
0.006663899	0.002073002
0.010534131	0.00499559
0.012042752	0.006431983
0.013551373	0.008020545
0.015059995	0.009751811
0.016568616	0.011616481
0.018077237	0.013605536
0.019585858	0.015710315
0.02109448	0.017922568
0.022603101	0.020234483
0.024111722	0.022638675
0.025620344	0.025128174
0.027128965	0.027696404
0.028637586	0.030337173
0.030146207	0.033044638
0.031654829	0.035813285
0.03316345	0.038637906
0.034672071	0.041513583
0.036180693	0.04443567
0.037689314	0.047399779
0.039197935	0.050401764
0.040706556	0.053437711
0.042215178	0.056503928
0.043723799	0.059596933
0.04523242	0.062713449
0.046741042	0.065850393
0.048249663	0.069004874
0.049758284	0.072174183
0.051266905	0.075355783
0.052775527	0.078547297
0.054284148	0.081746497
0.055792769	0.084951272
0.057301391	0.088159611
0.058810012	0.091369596
0.060318633	0.094579395
0.061827254	0.097787263
0.063335876	0.100991532
0.064844497	0.104190612
0.066353118	0.107382986
0.06786174	0.110567208
0.069370361	0.113741899
0.070878982	0.116905741
0.072387603	0.120057483
0.073896225	0.12319593
0.075404846	0.126319943
0.076913467	0.129428431
0.078422089	0.132520362
0.07993071	0.135594757
0.081439331	0.138650683
0.082947952	0.141687258
0.084456574	0.144703645
0.085965195	0.147699047
0.087473816	0.150672708
0.088982438	0.153623915
0.090491059	0.156551989
0.09199968	0.15945629
0.093508301	0.162336214
0.095016923	0.165191191
0.096525544	0.168020683
0.098034165	0.170824187
0.099542787	0.173601227
0.101051408	0.176351361
0.102560029	0.179074174
0.10406865	0.181769278
0.105577272	0.184436313
0.107085893	0.187074945
0.108594514	0.189684867
0.110103136	0.192265792
0.111611757	0.194817462
0.113120378	0.197339633
0.114628999	0.199832091
0.116137621	0.202294643
0.117646242	0.204727116
0.119154863	0.207129356
0.120663485	0.209501232
0.122172106	0.211842626
0.123680727	0.214153502
0.125189348	0.216433819
0.12669797	0.218683483
0.128206591	0.220902462
0.129715212	0.223090724
0.131223834	0.22524824
0.132732455	0.227374992
0.134241076	0.229470987
0.135749697	0.23153625
0.137258319	0.233570822
0.13876694	0.235574756
0.140275561	0.237548119
0.141784183	0.239490991
0.143292804	0.241403461
0.144801425	0.243285633
0.146310046	0.245137621
0.147818668	0.246959549
0.149327289	0.248751552
0.15083591	0.250513776
0.152344532	0.252246369
0.153853153	0.253949496
0.155361774	0.255623328
0.156870395	0.257268046
0.158379017	0.258883838
0.159887638	0.260470899
0.161396259	0.262029436
0.162904881	0.263559664
0.164413502	0.265061801
0.165922123	0.266536075
0.167430744	0.267982716
0.168939366	0.269401965
0.170447987	0.270794063
0.171956608	0.272159262
0.17346523	0.273497814
0.174973851	0.27480998
0.176482472	0.276096024
0.177991093	0.277356213
0.179499715	0.278590819
0.181008336	0.279800119
0.182516957	0.280984391
0.184025579	0.282143918
0.1855342	0.283278987
0.187042821	0.284389889
0.188551442	0.285476916
0.190060064	0.286540362
0.191568685	0.287580524
0.193077306	0.288597701
0.194585928	0.289592192
0.196094549	0.290564301
0.19760317	0.291514329
0.199111791	0.292442581
0.200620413	0.293349363
0.202129034	0.294234981
0.203637655	0.295099741
0.205146277	0.295943951
0.206654898	0.296767919
0.208163519	0.297571951
0.20967214	0.298356356
0.211180762	0.299121442
0.212689383	0.299867514
0.214198004	0.30059488
0.215706626	0.301303845
0.217215247	0.301994714
0.218723868	0.302667793
0.220232489	0.303323382
0.221741111	0.303961785
0.223249732	0.304583302
0.224758353	0.305188232
0.226266975	0.305776872
0.227775596	0.306349519
0.229284217	0.306906465
0.230792838	0.307448004
0.23230146	0.307974426
0.233810081	0.308486018
0.235318702	0.308983067
0.236827324	0.309465856
0.238335945	0.309934667
0.239844566	0.310389779
0.241353187	0.310831468
0.242861809	0.311260009
0.24437043	0.311675671
0.245879051	0.312078725
0.247387673	0.312469436
0.248896294	0.312848067
0.250404915	0.313214878
0.251913536	0.313570127
0.253422158	0.313914067
0.254930779	0.314246951
0.2564394	0.314569026
0.257948022	0.314880537
0.259456643	0.315181728
0.260965264	0.315472836
0.262473885	0.315754097
0.263982507	0.316025745
0.265491128	0.316288007
0.266999749	0.316541112
0.268508371	0.31678528
0.270016992	0.317020733
0.271525613	0.317247686
0.273034234	0.317466351
0.274542856	0.31767694
0.276051477	0.317879658
0.277560098	0.318074708
0.27906872	0.31826229
0.280577341	0.318442601
0.282085962	0.318615833
0.283594583	0.318782176
0.285103205	0.318941817
0.286611826	0.319094939
0.288120447	0.319241723
0.289629069	0.319382343
0.29113769	0.319516975
0.292646311	0.319645789
0.294154932	0.319768951
0.295663554	0.319886625
0.297172175	0.319998972
0.298680796	0.32010615
0.300189418	0.320208312
0.301698039	0.32030561
0.30320666	0.320398191
0.304715281	0.320486202
0.306223903	0.320569783
0.307732524	0.320649075
0.309241145	0.320724212
0.310749767	0.320795328
0.312258388	0.320862553
0.313767009	0.320926015
0.31527563	0.320985838
0.316784252	0.321042143
0.318292873	0.32109505
0.319801494	0.321144674
0.321310116	0.321191128
0.322818737	0.321234524
0.324327358	0.32127497
0.325835979	0.32131257
0.327344601	0.321347428
0.328853222	0.321379644
0.330361843	0.321409316
0.331870465	0.321436539
0.333379086	0.321461406
0.334887707	0.321484008
0.336396328	0.321504432
0.33790495	0.321522765
0.339413571	0.32153909
0.340922192	0.321553489
0.342430814	0.32156604
0.343939435	0.321576821
0.345448056	0.321585906
0.346956677	0.321593369
0.348465299	0.32159928
0.34997392	0.321603707
0.351482541	0.321606718
0.352991163	0.321608377
0.354499784	0.321608747
0.356008405	0.321607889
0.357517026	0.321605863
0.359025648	0.321602725
0.360534269	0.321598532
0.36204289	0.321593337
0.363551512	0.321587193
0.365060133	0.321580149
0.366568754	0.321572256
0.368077375	0.321563561
0.369585997	0.321554109
0.371094618	0.321543945
0.372603239	0.321533112
0.374111861	0.32152165
0.375620482	0.321509601
0.377129103	0.321497003
0.378637724	0.321483894
0.380146346	0.321470308
0.381654967	0.321456281
0.383163588	0.321441847
0.38467221	0.321427037
0.386180831	0.321411883
0.387689452	0.321396415
0.389198073	0.321380661
0.390706695	0.321364649
0.392215316	0.321348406
0.393723937	0.321331956
0.395232559	0.321315326
0.39674118	0.321298538
0.398249801	0.321281614
0.399758422	0.321264577
0.401267044	0.321247447
0.402775665	0.321230244
0.404284286	0.321212987
0.405792908	0.321195694
0.407301529	0.321178383
0.40881015	0.321161069
0.410318771	0.321143769
0.411827393	0.321126497
0.413336014	0.321109268
0.414844635	0.321092096
0.416353257	0.321074993
0.417861878	0.321057971
0.419370499	0.321041043
0.42087912	0.321024218
0.422387742	0.321007508
0.423896363	0.320990923
0.425404984	0.32097447
0.426913606	0.32095816
0.428422227	0.320942
0.429930848	0.320925998
0.431439469	0.320910161
0.432948091	0.320894496
0.434456712	0.320879008
0.435965333	0.320863705
0.437473955	0.32084859
0.438982576	0.320833669
0.440491197	0.320818947
0.441999818	0.320804427
0.44350844	0.320790113
0.445017061	0.32077601
0.446525682	0.320762119
0.448034304	0.320748443
0.449542925	0.320734986
0.451051546	0.320721749
0.452560167	0.320708734
0.454068789	0.320695943
0.45557741	0.320683376
0.457086031	0.320671035
0.458594653	0.320658921
0.460103274	0.320647035
0.461611895	0.320635375
0.463120516	0.320623944
0.464629138	0.32061274
0.466137759	0.320601763
0.46764638	0.320591014
0.469155002	0.32058049
0.470663623	0.320570192
0.472172244	0.320560118
0.473680865	0.320550267
0.475189487	0.320540639
0.476698108	0.320531231
0.478206729	0.320522042
0.479715351	0.32051307
0.481223972	0.320504314
0.482732593	0.320495772
0.484241214	0.320487441
0.485749836	0.32047932
0.487258457	0.320471406
0.488767078	0.320463698
0.4902757	0.320456192
0.491784321	0.320448887
0.493292942	0.32044178
0.494801563	0.320434869
0.496310185	0.32042815
0.497818806	0.320421621
0.499327427	0.32041528
0.500836049	0.320409124
0.50234467	0.32040315
0.503853291	0.320397355
0.505361912	0.320391736
0.506870534	0.320386291
0.508379155	0.320381017
0.509887776	0.32037591
0.511396398	0.320370968
0.512905019	0.320366188
0.51441364	0.320361567
0.515922261	0.320357101
0.517430883	0.320352789
0.518939504	0.320348627
0.520448125	0.320344612
0.521956747	0.320340741
0.523465368	0.320337011
0.524973989	0.32033342
0.52648261	0.320329964
0.527991232	0.32032664
0.529499853	0.320323446
0.531008474	0.320320378
0.532517096	0.320317434
0.534025717	0.320314611
0.535534338	0.320311907
0.537042959	0.320309317
0.538551581	0.32030684
0.540060202	0.320304473
0.541568823	0.320302212
0.543077445	0.320300057
0.544586066	0.320298002
0.546094687	0.320296047
0.547603308	0.320294188
0.54911193	0.320292423
0.550620551	0.320290749
0.552129172	0.320289165
0.553637794	0.320287666
0.555146415	0.320286251
0.556655036	0.320284918
0.558163657	0.320283663
0.559672279	0.320282486
0.5611809	0.320281383
0.562689521	0.320280352
0.564198143	0.320279391
0.565706764	0.320278498
0.567215385	0.32027767
0.568724006	0.320276906
0.570232628	0.320276203
0.571741249	0.32027556
0.57324987	0.320274974
0.574758492	0.320274443
0.576267113	0.320273966
